<svg width="12" height="7" viewBox="0 0 12 7" fill="none" xmlns="http://www.w3.org/2000/svg">
<path d="M7.17487 3.00757C7.19196 3.17847 7.22614 3.33228 7.22614 3.55444C7.22614 5.43433 5.96149 6.75024 4.06451 6.75024C2.25299 6.75024 0.783264 5.29761 0.783264 3.46899C0.783264 1.65747 2.25299 0.187744 4.06451 0.187744C4.95319 0.187744 5.68805 0.512451 6.2691 1.05933L5.38043 1.91382C5.14117 1.67456 4.71393 1.40112 4.06451 1.40112C2.95367 1.40112 2.03082 2.32397 2.03082 3.46899C2.03082 4.6311 2.95367 5.55396 4.06451 5.55396C5.36334 5.55396 5.85895 4.61401 5.92731 4.1355H4.06451V3.00757H7.17487ZM10.3365 3.11011H11.2935V4.06714H10.3365V5.02417H9.37946V4.06714H8.42242V3.11011H9.37946V2.17017H10.3365V3.11011Z" fill="currentColor"/>
</svg>
