<svg width="8" height="9" viewBox="0 0 8 9" fill="none" xmlns="http://www.w3.org/2000/svg">
<path d="M4.06271 2.50366C5.13937 2.50366 6.02805 3.39233 6.02805 4.46899C6.02805 5.56274 5.13937 6.43433 4.06271 6.43433C2.96896 6.43433 2.09738 5.56274 2.09738 4.46899C2.09738 3.39233 2.96896 2.50366 4.06271 2.50366ZM4.06271 5.75073C4.7634 5.75073 5.32736 5.18677 5.32736 4.46899C5.32736 3.76831 4.7634 3.20435 4.06271 3.20435C3.34494 3.20435 2.78098 3.76831 2.78098 4.46899C2.78098 5.18677 3.36203 5.75073 4.06271 5.75073ZM6.55783 2.4353C6.55783 2.69165 6.35275 2.89673 6.09641 2.89673C5.84006 2.89673 5.63498 2.69165 5.63498 2.4353C5.63498 2.17896 5.84006 1.97388 6.09641 1.97388C6.35275 1.97388 6.55783 2.17896 6.55783 2.4353ZM7.85666 2.89673C7.89084 3.52905 7.89084 5.42603 7.85666 6.05835C7.82248 6.67358 7.68576 7.20337 7.24142 7.66479C6.79709 8.10913 6.25021 8.24585 5.63498 8.28003C5.00266 8.31421 3.10568 8.31421 2.47336 8.28003C1.85812 8.24585 1.32834 8.10913 0.866913 7.66479C0.422577 7.20337 0.285858 6.67358 0.251678 6.05835C0.217499 5.42603 0.217499 3.52905 0.251678 2.89673C0.285858 2.28149 0.422577 1.73462 0.866913 1.29028C1.32834 0.845947 1.85812 0.709229 2.47336 0.675049C3.10568 0.640869 5.00266 0.640869 5.63498 0.675049C6.25021 0.709229 6.79709 0.845947 7.24142 1.29028C7.68576 1.73462 7.82248 2.28149 7.85666 2.89673ZM7.03635 6.72485C7.24142 6.22925 7.19016 5.03296 7.19016 4.46899C7.19016 3.92212 7.24142 2.72583 7.03635 2.21313C6.89963 1.88843 6.64328 1.61499 6.31857 1.49536C5.80588 1.29028 4.60959 1.34155 4.06271 1.34155C3.49875 1.34155 2.30246 1.29028 1.80685 1.49536C1.46506 1.63208 1.20871 1.88843 1.07199 2.21313C0.866913 2.72583 0.918182 3.92212 0.918182 4.46899C0.918182 5.03296 0.866913 6.22925 1.07199 6.72485C1.20871 7.06665 1.46506 7.323 1.80685 7.45972C2.30246 7.66479 3.49875 7.61353 4.06271 7.61353C4.60959 7.61353 5.80588 7.66479 6.31857 7.45972C6.64328 7.323 6.91672 7.06665 7.03635 6.72485Z" fill="currentColor"/>
</svg>
