<svg width="9" height="9" viewBox="0 0 9 9" fill="none" xmlns="http://www.w3.org/2000/svg">
<path d="M9 4.46875C9 6.81006 7.10303 8.70703 4.76172 8.70703C4.31738 8.70703 3.89014 8.65576 3.49707 8.51904C3.66797 8.24561 3.92432 7.78418 4.02686 7.4082C4.07812 7.22021 4.2832 6.3999 4.2832 6.3999C4.41992 6.67334 4.83008 6.89551 5.25732 6.89551C6.53906 6.89551 7.46191 5.71631 7.46191 4.26367C7.46191 2.8623 6.31689 1.80273 4.84717 1.80273C3.01855 1.80273 2.04443 3.0332 2.04443 4.36621C2.04443 4.99854 2.36914 5.76758 2.89893 6.02393C2.98438 6.05811 3.03564 6.04102 3.05273 5.95557C3.05273 5.9043 3.13818 5.61377 3.17236 5.47705C3.17236 5.44287 3.17236 5.3916 3.13818 5.35742C2.96729 5.15234 2.83057 4.75928 2.83057 4.3833C2.83057 3.46045 3.53125 2.55469 4.74463 2.55469C5.77002 2.55469 6.50488 3.25537 6.50488 4.28076C6.50488 5.42578 5.92383 6.21191 5.17188 6.21191C4.76172 6.21191 4.4541 5.87012 4.53955 5.45996C4.65918 4.94727 4.89844 4.40039 4.89844 4.0415C4.89844 3.7168 4.72754 3.44336 4.36865 3.44336C3.94141 3.44336 3.59961 3.8877 3.59961 4.46875C3.59961 4.84473 3.71924 5.10107 3.71924 5.10107C3.71924 5.10107 3.30908 6.87842 3.22363 7.20312C3.13818 7.5791 3.17236 8.0918 3.20654 8.4165C1.63428 7.80127 0.523438 6.28027 0.523438 4.46875C0.523438 2.12744 2.42041 0.230469 4.76172 0.230469C7.10303 0.230469 9 2.12744 9 4.46875Z" fill="currentColor"/>
</svg>
