<svg width="11" height="12" viewBox="0 0 11 12" fill="none" xmlns="http://www.w3.org/2000/svg">
<path d="M1.0499 6.95924C0.767286 6.95924 0.527069 6.86739 0.329243 6.6837C0.145547 6.48587 0.0536994 6.23859 0.0536994 5.94185C0.0536994 5.65924 0.145547 5.43315 0.329243 5.26359C0.527069 5.07989 0.767286 4.98804 1.0499 4.98804H9.71892C10.0015 4.98804 10.2347 5.07989 10.4184 5.26359C10.6162 5.44728 10.7151 5.6875 10.7151 5.98424C10.7151 6.25272 10.6162 6.48587 10.4184 6.6837C10.2347 6.86739 10.0015 6.95924 9.71892 6.95924H1.0499ZM5.35261 11.2408C5.02761 11.2408 4.75207 11.1348 4.52598 10.9228C4.31403 10.7109 4.20805 10.4353 4.20805 10.0962V1.59674C4.20805 1.27174 4.32109 1.00326 4.54718 0.791304C4.77327 0.579347 5.04881 0.473369 5.37381 0.473369C5.71294 0.473369 5.98142 0.579347 6.17924 0.791304C6.3912 1.00326 6.49718 1.27174 6.49718 1.59674V10.0962C6.49718 10.4353 6.3912 10.7109 6.17924 10.9228C5.96729 11.1348 5.69174 11.2408 5.35261 11.2408Z" fill="currentColor"/>
</svg>
